<svg width="16" height="16" viewBox="0 0 16 16" fill="none" xmlns="http://www.w3.org/2000/svg">
<path d="M15.5 3.83333V3.20833C15.5 1.715 14.285 0.5 12.7917 0.5H3.20833C1.715 0.5 0.5 1.715 0.5 3.20833V3.83333H15.5ZM0.5 5.08333V12.7917C0.5 14.285 1.715 15.5 3.20833 15.5H12.7917C14.285 15.5 15.5 14.285 15.5 12.7917V5.08333H0.5ZM4.45833 13C3.88292 13 3.41667 12.5337 3.41667 11.9583C3.41667 11.3829 3.88292 10.9167 4.45833 10.9167C5.03375 10.9167 5.5 11.3829 5.5 11.9583C5.5 12.5337 5.03375 13 4.45833 13ZM4.45833 9.25C3.88292 9.25 3.41667 8.78375 3.41667 8.20833C3.41667 7.63292 3.88292 7.16667 4.45833 7.16667C5.03375 7.16667 5.5 7.63292 5.5 8.20833C5.5 8.78375 5.03375 9.25 4.45833 9.25ZM8 13C7.42458 13 6.95833 12.5337 6.95833 11.9583C6.95833 11.3829 7.42458 10.9167 8 10.9167C8.57542 10.9167 9.04167 11.3829 9.04167 11.9583C9.04167 12.5337 8.57542 13 8 13ZM8 9.25C7.42458 9.25 6.95833 8.78375 6.95833 8.20833C6.95833 7.63292 7.42458 7.16667 8 7.16667C8.57542 7.16667 9.04167 7.63292 9.04167 8.20833C9.04167 8.78375 8.57542 9.25 8 9.25ZM11.5417 9.25C10.9662 9.25 10.5 8.78375 10.5 8.20833C10.5 7.63292 10.9662 7.16667 11.5417 7.16667C12.1171 7.16667 12.5833 7.63292 12.5833 8.20833C12.5833 8.78375 12.1171 9.25 11.5417 9.25Z" fill="black"/>
</svg>
