<svg width="15" height="15" viewBox="0 0 15 15" fill="none" xmlns="http://www.w3.org/2000/svg">
<path d="M12.9296 5.6472L13.8126 4.76423C14.7296 3.84725 14.7296 2.3549 13.8126 1.43755C13.3686 0.993901 12.7784 0.75 12.1491 0.75C11.5198 0.75 10.9292 0.994263 10.4856 1.43792L9.60297 2.32052L12.9296 5.6472ZM8.83544 3.08805L2.2968 9.62669C2.15748 9.76601 2.05145 9.9379 1.98994 10.1243L0.77767 13.7868C0.712895 13.9814 0.763919 14.196 0.909029 14.3411C1.01289 14.4446 1.15112 14.5 1.29297 14.5C1.35015 14.5 1.40769 14.491 1.46378 14.4725L5.12518 13.2599C5.31227 13.1984 5.48452 13.0923 5.62384 12.9526L12.1621 6.41436L8.83544 3.08805Z" fill="#3479FF"/>
</svg>
