<svg width="48" height="48" viewBox="0 0 48 48" fill="none" xmlns="http://www.w3.org/2000/svg">
<path d="M8.24987 0.533203C6.63829 0.533203 5.15252 1.45282 4.4332 2.8957L0.533203 10.6957V11.1999V17.5999V43.1999C0.533203 45.5572 2.44254 47.4665 4.79987 47.4665H43.1999C45.5572 47.4665 47.4665 45.5572 47.4665 43.1999V17.5999V11.1999V10.6957L43.5624 2.89154C42.842 1.45179 41.3594 0.533203 39.7499 0.533203H8.24987ZM8.25404 4.79987H39.7457L42.9457 11.1999H5.05404L8.25404 4.79987ZM17.5999 15.4665H30.3999C31.5775 15.4665 32.5332 16.4223 32.5332 17.5999C32.5332 18.7775 31.5775 19.7332 30.3999 19.7332H17.5999C16.4223 19.7332 15.4665 18.7775 15.4665 17.5999C15.4665 16.4223 16.4223 15.4665 17.5999 15.4665Z" fill="#1D233A" fill-opacity="0.2"/>
</svg>
