<svg width="14" height="18" viewBox="0 0 14 18" fill="none" xmlns="http://www.w3.org/2000/svg">
<path d="M5.33398 0.666016L4.50065 1.49935H1.16732C0.707318 1.49935 0.333984 1.87268 0.333984 2.33268C0.333984 2.79268 0.707318 3.16602 1.16732 3.16602H12.834C13.294 3.16602 13.6673 2.79268 13.6673 2.33268C13.6673 1.87268 13.294 1.49935 12.834 1.49935H9.50065L8.66732 0.666016H5.33398ZM1.16732 4.83268V15.666C1.16732 16.5827 1.91732 17.3327 2.83398 17.3327H11.1673C12.084 17.3327 12.834 16.5827 12.834 15.666V4.83268H1.16732ZM4.84245 7.67773C5.05516 7.67773 5.26793 7.75816 5.43001 7.92025L7.00065 9.49088L8.57129 7.92025C8.89546 7.59608 9.42225 7.59608 9.74642 7.92025C10.0706 8.24441 10.0706 8.77121 9.74642 9.09538L8.17578 10.666L9.74642 12.2367C10.0706 12.5608 10.0706 13.0876 9.74642 13.4118C9.42225 13.736 8.89546 13.736 8.57129 13.4118L7.00065 11.8411L5.43001 13.4118C5.10585 13.736 4.57905 13.736 4.25488 13.4118C3.93072 13.0876 3.93072 12.5608 4.25488 12.2367L5.82552 10.666L4.25488 9.09538C3.93072 8.77121 3.93072 8.24441 4.25488 7.92025C4.41697 7.75816 4.62974 7.67773 4.84245 7.67773Z" fill="#FF5A44"/>
</svg>
