<svg width="14" height="18" viewBox="0 0 14 18" fill="none" xmlns="http://www.w3.org/2000/svg">
<path d="M7.00065 0C5.90398 0 5.00065 0.903327 5.00065 2H2.33398C1.23734 2 0.333984 2.90335 0.333984 4V16C0.333984 17.0966 1.23734 18 2.33398 18H11.6673C12.764 18 13.6673 17.0966 13.6673 16V4C13.6673 2.90335 12.764 2 11.6673 2H9.00065C9.00065 0.903327 8.09732 0 7.00065 0ZM7.00065 1.33333C7.37674 1.33333 7.66732 1.62391 7.66732 2C7.66732 2.37609 7.37674 2.66667 7.00065 2.66667C6.62456 2.66667 6.33398 2.37609 6.33398 2C6.33398 1.62391 6.62456 1.33333 7.00065 1.33333ZM2.33398 3.33333H5.00065V4C5.00065 4.368 5.29932 4.66667 5.66732 4.66667H8.33398C8.70198 4.66667 9.00065 4.368 9.00065 4V3.33333H11.6673C12.044 3.33333 12.334 3.62331 12.334 4V16C12.334 16.3767 12.044 16.6667 11.6673 16.6667H2.33398C1.9573 16.6667 1.66732 16.3767 1.66732 16V4C1.66732 3.62331 1.9573 3.33333 2.33398 3.33333ZM4.33398 7.33333C4.24564 7.33208 4.15793 7.3484 4.07596 7.38135C3.99398 7.41429 3.91936 7.4632 3.85645 7.52523C3.79354 7.58726 3.74358 7.66117 3.70948 7.74268C3.67538 7.82418 3.65782 7.91165 3.65782 8C3.65782 8.08835 3.67538 8.17582 3.70948 8.25732C3.74358 8.33883 3.79354 8.41274 3.85645 8.47477C3.91936 8.5368 3.99398 8.58571 4.07596 8.61865C4.15793 8.6516 4.24564 8.66792 4.33398 8.66667H7.00065C7.08899 8.66792 7.1767 8.6516 7.25868 8.61865C7.34066 8.58571 7.41527 8.5368 7.47819 8.47477C7.5411 8.41274 7.59106 8.33883 7.62515 8.25732C7.65925 8.17582 7.67681 8.08835 7.67681 8C7.67681 7.91165 7.65925 7.82418 7.62515 7.74268C7.59106 7.66117 7.5411 7.58726 7.47819 7.52523C7.41527 7.4632 7.34066 7.41429 7.25868 7.38135C7.1767 7.3484 7.08899 7.33208 7.00065 7.33333H4.33398ZM9.66732 7.33333C9.49051 7.33333 9.32094 7.40357 9.19591 7.5286C9.07089 7.65362 9.00065 7.82319 9.00065 8C9.00065 8.17681 9.07089 8.34638 9.19591 8.47141C9.32094 8.59643 9.49051 8.66667 9.66732 8.66667C9.84413 8.66667 10.0137 8.59643 10.1387 8.47141C10.2637 8.34638 10.334 8.17681 10.334 8C10.334 7.82319 10.2637 7.65362 10.1387 7.5286C10.0137 7.40357 9.84413 7.33333 9.66732 7.33333ZM4.33398 10C4.24564 9.99875 4.15793 10.0151 4.07596 10.048C3.99398 10.081 3.91936 10.1299 3.85645 10.1919C3.79354 10.2539 3.74358 10.3278 3.70948 10.4093C3.67538 10.4908 3.65782 10.5783 3.65782 10.6667C3.65782 10.755 3.67538 10.8425 3.70948 10.924C3.74358 11.0055 3.79354 11.0794 3.85645 11.1414C3.91936 11.2035 3.99398 11.2524 4.07596 11.2853C4.15793 11.3183 4.24564 11.3346 4.33398 11.3333H7.00065C7.08899 11.3346 7.1767 11.3183 7.25868 11.2853C7.34066 11.2524 7.41527 11.2035 7.47819 11.1414C7.5411 11.0794 7.59106 11.0055 7.62515 10.924C7.65925 10.8425 7.67681 10.755 7.67681 10.6667C7.67681 10.5783 7.65925 10.4908 7.62515 10.4093C7.59106 10.3278 7.5411 10.2539 7.47819 10.1919C7.41527 10.1299 7.34066 10.081 7.25868 10.048C7.1767 10.0151 7.08899 9.99875 7.00065 10H4.33398ZM9.66732 10C9.49051 10 9.32094 10.0702 9.19591 10.1953C9.07089 10.3203 9.00065 10.4899 9.00065 10.6667C9.00065 10.8435 9.07089 11.013 9.19591 11.1381C9.32094 11.2631 9.49051 11.3333 9.66732 11.3333C9.84413 11.3333 10.0137 11.2631 10.1387 11.1381C10.2637 11.013 10.334 10.8435 10.334 10.6667C10.334 10.4899 10.2637 10.3203 10.1387 10.1953C10.0137 10.0702 9.84413 10 9.66732 10ZM4.33398 12.6667C4.24564 12.6654 4.15793 12.6817 4.07596 12.7147C3.99398 12.7476 3.91936 12.7965 3.85645 12.8586C3.79354 12.9206 3.74358 12.9945 3.70948 13.076C3.67538 13.1575 3.65782 13.245 3.65782 13.3333C3.65782 13.4217 3.67538 13.5092 3.70948 13.5907C3.74358 13.6722 3.79354 13.7461 3.85645 13.8081C3.91936 13.8701 3.99398 13.919 4.07596 13.952C4.15793 13.9849 4.24564 14.0012 4.33398 14H7.00065C7.08899 14.0012 7.1767 13.9849 7.25868 13.952C7.34066 13.919 7.41527 13.8701 7.47819 13.8081C7.5411 13.7461 7.59106 13.6722 7.62515 13.5907C7.65925 13.5092 7.67681 13.4217 7.67681 13.3333C7.67681 13.245 7.65925 13.1575 7.62515 13.076C7.59106 12.9945 7.5411 12.9206 7.47819 12.8586C7.41527 12.7965 7.34066 12.7476 7.25868 12.7147C7.1767 12.6817 7.08899 12.6654 7.00065 12.6667H4.33398ZM9.66732 12.6667C9.49051 12.6667 9.32094 12.7369 9.19591 12.8619C9.07089 12.987 9.00065 13.1565 9.00065 13.3333C9.00065 13.5101 9.07089 13.6797 9.19591 13.8047C9.32094 13.9298 9.49051 14 9.66732 14C9.84413 14 10.0137 13.9298 10.1387 13.8047C10.2637 13.6797 10.334 13.5101 10.334 13.3333C10.334 13.1565 10.2637 12.987 10.1387 12.8619C10.0137 12.7369 9.84413 12.6667 9.66732 12.6667Z" fill="#ED8835"/>
</svg>
