<svg width="14" height="18" viewBox="0 0 14 18" fill="none" xmlns="http://www.w3.org/2000/svg">
<path d="M2.83325 0.666626C1.46244 0.666626 0.333252 1.79582 0.333252 3.16663V14.8333C0.333252 16.2041 1.46244 17.3333 2.83325 17.3333H13.6666V15.6666H2.83325C2.36239 15.6666 1.99992 15.3042 1.99992 14.8333C1.99992 14.3624 2.36239 14 2.83325 14H13.6666V12.3333V0.666626H10.3333H5.33325H2.83325ZM2.83325 2.33329H5.33325V9.1025L6.6451 8.1829L7.83325 7.34794L10.3333 9.1025V2.33329H11.9999V12.3333H2.83325C2.54005 12.3333 2.26233 12.3949 1.99992 12.4895V3.16663C1.99992 2.69577 2.36239 2.33329 2.83325 2.33329ZM6.99992 2.33329H8.66658V5.89775L7.83325 5.31344L6.99992 5.89775V2.33329Z" fill="white"/>
</svg>
