<svg width="16" height="16" viewBox="0 0 16 16" fill="none" xmlns="http://www.w3.org/2000/svg">
<path d="M1.33464 0.666016C0.966635 0.666016 0.667969 0.964682 0.667969 1.33268V3.99935C0.667969 4.36735 0.966635 4.66602 1.33464 4.66602H4.0013C4.3693 4.66602 4.66797 4.36735 4.66797 3.99935V1.33268C4.66797 0.964682 4.3693 0.666016 4.0013 0.666016H1.33464ZM6.66797 1.99935C6.57963 1.9981 6.49192 2.01442 6.40994 2.04736C6.32796 2.08031 6.25335 2.12921 6.19043 2.19124C6.12752 2.25327 6.07756 2.32719 6.04346 2.40869C6.00937 2.4902 5.99181 2.57767 5.99181 2.66602C5.99181 2.75437 6.00937 2.84183 6.04346 2.92334C6.07756 3.00484 6.12752 3.07876 6.19043 3.14079C6.25335 3.20282 6.32796 3.25173 6.40994 3.28467C6.49192 3.31761 6.57963 3.33393 6.66797 3.33268H14.668C14.7563 3.33393 14.844 3.31761 14.926 3.28467C15.008 3.25173 15.0826 3.20282 15.1455 3.14079C15.2084 3.07876 15.2584 3.00484 15.2925 2.92334C15.3266 2.84183 15.3441 2.75437 15.3441 2.66602C15.3441 2.57767 15.3266 2.4902 15.2925 2.40869C15.2584 2.32719 15.2084 2.25327 15.1455 2.19124C15.0826 2.12921 15.008 2.08031 14.926 2.04736C14.844 2.01442 14.7563 1.9981 14.668 1.99935H6.66797ZM1.33464 5.99935C0.966635 5.99935 0.667969 6.29802 0.667969 6.66602V9.33268C0.667969 9.70068 0.966635 9.99935 1.33464 9.99935H4.0013C4.3693 9.99935 4.66797 9.70068 4.66797 9.33268V6.66602C4.66797 6.29802 4.3693 5.99935 4.0013 5.99935H1.33464ZM6.66797 7.33268C6.57963 7.33143 6.49192 7.34775 6.40994 7.3807C6.32796 7.41364 6.25335 7.46255 6.19043 7.52458C6.12752 7.5866 6.07756 7.66052 6.04346 7.74202C6.00937 7.82353 5.99181 7.911 5.99181 7.99935C5.99181 8.0877 6.00937 8.17517 6.04346 8.25667C6.07756 8.33818 6.12752 8.41209 6.19043 8.47412C6.25335 8.53615 6.32796 8.58506 6.40994 8.618C6.49192 8.65094 6.57963 8.66726 6.66797 8.66602H14.668C14.7563 8.66726 14.844 8.65094 14.926 8.618C15.008 8.58506 15.0826 8.53615 15.1455 8.47412C15.2084 8.41209 15.2584 8.33818 15.2925 8.25667C15.3266 8.17517 15.3441 8.0877 15.3441 7.99935C15.3441 7.911 15.3266 7.82353 15.2925 7.74202C15.2584 7.66052 15.2084 7.5866 15.1455 7.52458C15.0826 7.46255 15.008 7.41364 14.926 7.3807C14.844 7.34775 14.7563 7.33143 14.668 7.33268H6.66797ZM1.33464 11.3327C0.966635 11.3327 0.667969 11.6313 0.667969 11.9993V14.666C0.667969 15.034 0.966635 15.3327 1.33464 15.3327H4.0013C4.3693 15.3327 4.66797 15.034 4.66797 14.666V11.9993C4.66797 11.6313 4.3693 11.3327 4.0013 11.3327H1.33464ZM1.83464 12.4993H3.5013V14.166H1.83464V12.4993ZM6.66797 12.666C6.57963 12.6648 6.49192 12.6811 6.40994 12.714C6.32796 12.747 6.25335 12.7959 6.19043 12.8579C6.12752 12.9199 6.07756 12.9939 6.04346 13.0754C6.00937 13.1569 5.99181 13.2443 5.99181 13.3327C5.99181 13.421 6.00937 13.5085 6.04346 13.59C6.07756 13.6715 6.12752 13.7454 6.19043 13.8075C6.25335 13.8695 6.32796 13.9184 6.40994 13.9513C6.49192 13.9843 6.57963 14.0006 6.66797 13.9993H14.668C14.7563 14.0006 14.844 13.9843 14.926 13.9513C15.008 13.9184 15.0826 13.8695 15.1455 13.8075C15.2084 13.7454 15.2584 13.6715 15.2925 13.59C15.3266 13.5085 15.3441 13.421 15.3441 13.3327C15.3441 13.2443 15.3266 13.1569 15.2925 13.0754C15.2584 12.9939 15.2084 12.9199 15.1455 12.8579C15.0826 12.7959 15.008 12.747 14.926 12.714C14.844 12.6811 14.7563 12.6648 14.668 12.666H6.66797Z" fill="#100A31" fill-opacity="0.24"/>
</svg>
