<svg width="18" height="16" viewBox="0 0 18 16" fill="none" xmlns="http://www.w3.org/2000/svg">
<path d="M9.00044 0.0839844C7.85609 0.0839844 6.91466 1.02541 6.91466 2.16976V14.6649H5.67117C5.67138 13.416 5.67361 6.5802 5.67361 5.91976C5.67361 4.77541 4.73219 3.83398 3.58784 3.83398C2.44349 3.83398 1.50288 4.77541 1.50288 5.91976C1.50288 6.5782 1.50064 13.4142 1.50044 14.6649H1.2921C1.20928 14.6637 1.12706 14.679 1.0502 14.7099C0.973348 14.7408 0.903397 14.7866 0.844416 14.8448C0.785435 14.9029 0.7386 14.9722 0.706632 15.0486C0.674665 15.125 0.658203 15.207 0.658203 15.2899C0.658203 15.3727 0.674665 15.4547 0.706632 15.5311C0.7386 15.6075 0.785435 15.6768 0.844416 15.735C0.903397 15.7931 0.973348 15.839 1.0502 15.8699C1.12706 15.9007 1.20928 15.916 1.2921 15.9149H16.7088C16.7916 15.916 16.8738 15.9007 16.9507 15.8699C17.0275 15.839 17.0975 15.7931 17.1565 15.735C17.2154 15.6768 17.2623 15.6075 17.2942 15.5311C17.3262 15.4547 17.3427 15.3727 17.3427 15.2899C17.3427 15.207 17.3262 15.125 17.2942 15.0486C17.2623 14.9722 17.2154 14.9029 17.1565 14.8448C17.0975 14.7866 17.0275 14.7408 16.9507 14.7099C16.8738 14.679 16.7916 14.6637 16.7088 14.6649H16.5004V9.25065C16.5004 8.1063 15.559 7.16488 14.4147 7.16488C13.2703 7.16488 12.3297 8.1063 12.3297 9.25065V14.6649H11.0862V2.16976C11.0862 1.02541 10.1448 0.0839844 9.00044 0.0839844ZM9.00044 1.33398C9.46942 1.33398 9.83621 1.70077 9.83621 2.16976V14.6649H8.16466V2.16976C8.16466 1.70077 8.53145 1.33398 9.00044 1.33398ZM3.58784 5.08398C4.05683 5.08398 4.42361 5.45077 4.42361 5.91976C4.42361 6.5778 4.42138 13.4139 4.42117 14.6649H2.75044C2.75064 13.4164 2.75288 6.58059 2.75288 5.91976C2.75288 5.45077 3.11885 5.08398 3.58784 5.08398ZM14.4147 8.41488C14.8836 8.41488 15.2504 8.78166 15.2504 9.25065V14.6649H13.5797V9.25065C13.5797 8.78166 13.9457 8.41488 14.4147 8.41488Z" fill="#48BB78"/>
</svg>
