<svg width="20" height="12" viewBox="0 0 20 12" fill="none" xmlns="http://www.w3.org/2000/svg">
<path d="M5.625 0.375C3.56201 0.375 1.875 2.06201 1.875 4.125C1.875 5.36523 2.48535 6.46875 3.41797 7.15234C1.94755 7.88211 0.877531 9.30968 0.66406 11.0015C0.620848 11.3439 0.904822 11.625 1.25 11.625C1.59518 11.625 1.86954 11.3431 1.92596 11.0026C2.22077 9.22326 3.75952 7.875 5.625 7.875C7.49048 7.875 9.02923 9.22326 9.32404 11.0026C9.38046 11.3431 9.65482 11.625 10 11.625C10.3452 11.625 10.6195 11.3431 10.676 11.0026C10.9708 9.22326 12.5095 7.875 14.375 7.875C16.2405 7.875 17.7792 9.22326 18.074 11.0026C18.1305 11.3431 18.4048 11.625 18.75 11.625C19.0952 11.625 19.3792 11.3439 19.3359 11.0015C19.1225 9.30968 18.0525 7.88211 16.582 7.15234C17.5146 6.46875 18.125 5.36523 18.125 4.125C18.125 2.06201 16.438 0.375 14.375 0.375C12.312 0.375 10.625 2.06201 10.625 4.125C10.625 5.36523 11.2354 6.46875 12.168 7.15234C11.2573 7.604 10.4932 8.31689 10 9.20312C9.50684 8.31689 8.74268 7.604 7.83203 7.15234C8.76465 6.46875 9.375 5.36523 9.375 4.125C9.375 2.06201 7.68799 0.375 5.625 0.375ZM5.625 1.625C7.01416 1.625 8.125 2.73584 8.125 4.125C8.125 5.51416 7.01416 6.625 5.625 6.625C4.23584 6.625 3.125 5.51416 3.125 4.125C3.125 2.73584 4.23584 1.625 5.625 1.625ZM14.375 1.625C15.7642 1.625 16.875 2.73584 16.875 4.125C16.875 5.51416 15.7642 6.625 14.375 6.625C12.9858 6.625 11.875 5.51416 11.875 4.125C11.875 2.73584 12.9858 1.625 14.375 1.625Z" fill="#ED64A6"/>
</svg>
