<svg width="178" height="178" viewBox="0 0 178 178" fill="none" xmlns="http://www.w3.org/2000/svg">
<g clip-path="url(#clip0_449_3697)">
<path fill-rule="evenodd" clip-rule="evenodd" d="M72.6632 100.343C69.62 102.2 67.3665 105.076 66.3649 109.188C63.2671 121.906 69.246 131.227 79.0029 137.652C93.2499 147.034 115.655 150.139 128.48 148.757C129.088 148.693 129.525 148.146 129.459 147.541C129.395 146.934 128.85 146.494 128.242 146.559C115.795 147.901 94.0448 144.91 80.2173 135.805C71.2587 129.905 65.6674 121.392 68.5143 109.71C69.3591 106.233 71.2689 103.812 73.838 102.236C74.8941 103.899 75.9834 105.51 77.1047 107.066C80.2012 111.359 90.1889 120.871 99.3312 124.752C105.89 127.534 112.007 127.422 115.295 121.359C117.122 117.988 116.44 114.393 113.998 111.025C110.643 106.392 103.846 102.165 96.3863 99.755C90.1759 97.7476 83.5202 96.9969 78.0526 98.2271C76.8516 98.4999 75.705 98.8623 74.6311 99.3277C60.421 75.9853 53.1809 43.6835 57.4965 17.2965C57.5926 16.695 57.1869 16.1258 56.5829 16.0283C55.9803 15.9284 55.4121 16.338 55.3136 16.9382C50.9296 43.7559 58.2502 76.571 72.6632 100.343ZM75.8201 101.235C76.8161 102.796 77.8425 104.309 78.8981 105.772C81.8667 109.886 91.4347 118.998 100.194 122.715C105.57 124.998 110.657 125.274 113.352 120.305C114.766 117.694 114.097 114.931 112.209 112.321C110.13 109.451 106.611 106.782 102.449 104.646C96.1299 101.404 88.3259 99.4011 81.6838 99.9209C79.5795 100.085 77.5933 100.507 75.8201 101.235Z" fill="#100A31" fill-opacity="0.48"/>
<path fill-rule="evenodd" clip-rule="evenodd" d="M78.951 52.5035C68.8069 44.0765 61.0686 29.7979 57.3471 17.0751C57.176 16.49 56.5613 16.1544 55.9762 16.3255C55.391 16.4965 55.0531 17.1099 55.2241 17.695C59.0605 30.8159 67.081 45.5151 77.538 54.2033C78.0058 54.5925 78.7033 54.5281 79.0939 54.0579C79.4832 53.5901 79.4188 52.8927 78.951 52.5035Z" fill="#100A31" fill-opacity="0.48"/>
<path fill-rule="evenodd" clip-rule="evenodd" d="M54.9511 17.7011C54.8995 28.6804 48.2393 41.7223 40.5197 49.5757C40.0912 50.0111 40.0954 50.7125 40.5322 51.1386C40.9676 51.5671 41.6664 51.5616 42.095 51.1262C50.1819 42.8987 57.1069 29.2141 57.1612 17.7114C57.1653 17.1018 56.6704 16.6033 56.0608 16.5992C55.4498 16.5976 54.9528 17.0902 54.9511 17.7011Z" fill="#100A31" fill-opacity="0.48"/>
</g>
<defs>
<clipPath id="clip0_449_3697">
<rect width="130" height="130" fill="white" transform="translate(0 112.584) rotate(-60)"/>
</clipPath>
</defs>
</svg>
