<svg width="10" height="8" viewBox="0 0 10 8" fill="none" xmlns="http://www.w3.org/2000/svg">
<path d="M9.5 0H0.5C0.225 0 0 0.225 0 0.5V7.5C0 7.775 0.225 8 0.5 8H5.5V7.5C5.5 7.224 5.724 7 6 7H7.5C7.776 7 8 7.224 8 7.5V8H9.5C9.775 8 10 7.775 10 7.5V0.5C10 0.225 9.775 0 9.5 0ZM7.879 3.32L6.3555 4.855C6.2005 5.005 5.9705 5.045 5.7755 4.945L4.1005 4.11L2.832 5.364C2.6365 5.5595 2.32 5.5595 2.125 5.364L2.122 5.361C1.9265 5.1655 1.9265 4.849 2.122 4.654L3.645 3.145C3.8 2.995 4.03 2.955 4.225 3.055L5.9 3.89L7.1685 2.61C7.364 2.4145 7.6805 2.4145 7.8755 2.61L7.8785 2.613C8.074 2.808 8.074 3.125 7.879 3.32Z" fill="#4E00CD"/>
</svg>
