<svg width="12" height="9" viewBox="0 0 12 9" fill="none" xmlns="http://www.w3.org/2000/svg">
<path d="M4.78782 0.983274C5.10931 0.673839 5.54534 0.5 6 0.5C6.45466 0.5 6.89069 0.673839 7.21218 0.983274C7.53367 1.29271 7.71429 1.71239 7.71429 2.15C7.71429 2.58761 7.53367 3.00729 7.21218 3.31673C6.89069 3.62616 6.45466 3.8 6 3.8C5.54534 3.8 5.10931 3.62616 4.78782 3.31673C4.46633 3.00729 4.28571 2.58761 4.28571 2.15C4.28571 1.71239 4.46633 1.29271 4.78782 0.983274Z" fill="#E59B0C"/>
<path d="M1.23372 2.51246C1.47484 2.28038 1.80186 2.15 2.14286 2.15C2.48385 2.15 2.81088 2.28038 3.05199 2.51246C3.29311 2.74453 3.42857 3.05929 3.42857 3.3875C3.42857 3.71571 3.29311 4.03047 3.05199 4.26254C2.81088 4.49462 2.48385 4.625 2.14286 4.625C1.80186 4.625 1.47484 4.49462 1.23372 4.26254C0.992602 4.03047 0.857143 3.71571 0.857143 3.3875C0.857143 3.05929 0.992602 2.74453 1.23372 2.51246Z" fill="#E59B0C"/>
<path d="M8.94801 2.51246C9.18913 2.28038 9.51615 2.15 9.85714 2.15C10.1981 2.15 10.5252 2.28038 10.7663 2.51246C11.0074 2.74453 11.1429 3.05929 11.1429 3.3875C11.1429 3.71571 11.0074 4.03047 10.7663 4.26254C10.5252 4.49462 10.1981 4.625 9.85714 4.625C9.51615 4.625 9.18913 4.49462 8.94801 4.26254C8.70689 4.03047 8.57143 3.71571 8.57143 3.3875C8.57143 3.05929 8.70689 2.74453 8.94801 2.51246Z" fill="#E59B0C"/>
<path d="M3 6.6875C3 6.6875 3.71914 4.625 6 4.625C8.28086 4.625 9 6.6875 9 6.6875C9 5.98955 8.57143 5.45 8.57143 5.45C8.82857 5.29655 9.48651 5.19219 9.80022 5.19219C10.7002 5.19219 12 6.17236 12 6.83896V8.75H0V6.83896C0 6.17236 1.16006 5.19301 2.19978 5.19219C2.51349 5.19219 3.17143 5.29655 3.42857 5.45C3.42857 5.45 3 5.98955 3 6.6875Z" fill="#E59B0C"/>
</svg>
