<svg width="18" height="18" viewBox="0 0 18 18" fill="none" xmlns="http://www.w3.org/2000/svg">
<path d="M2.33464 0.666992C1.4138 0.666992 0.667969 1.41283 0.667969 2.33366V13.167C0.667969 13.627 1.0413 14.0003 1.5013 14.0003C1.9613 14.0003 2.33464 13.627 2.33464 13.167V2.33366H13.168C13.628 2.33366 14.0013 1.96033 14.0013 1.50033C14.0013 1.04033 13.628 0.666992 13.168 0.666992H2.33464ZM5.66797 4.00032C4.74713 4.00032 4.0013 4.74616 4.0013 5.66699V15.667C4.0013 16.5878 4.74713 17.3337 5.66797 17.3337H15.668C16.5888 17.3337 17.3346 16.5878 17.3346 15.667V5.66699C17.3346 4.74616 16.5888 4.00032 15.668 4.00032H5.66797ZM5.66797 5.66699H15.668V15.667H5.66797V5.66699Z" fill="#3479FF"/>
</svg>
