<svg width="20" height="20" viewBox="0 0 20 20" fill="none" xmlns="http://www.w3.org/2000/svg">
<path d="M18.3346 10.0003C18.3346 14.602 14.603 18.3337 10.0013 18.3337C5.39964 18.3337 1.66797 14.602 1.66797 10.0003C1.66797 5.39866 5.39964 1.66699 10.0013 1.66699C14.603 1.66699 18.3346 5.39866 18.3346 10.0003Z" fill="#FF7A00"/>
<path d="M9.89786 12.9774C9.59495 12.9774 9.34453 13.0749 9.14911 13.2737C8.9537 13.4707 8.8562 13.7212 8.8562 14.0257C8.8562 14.3253 8.95203 14.5728 9.14286 14.7678C9.33495 14.9632 9.58578 15.0607 9.89953 15.0607C10.212 15.0607 10.4629 14.9632 10.6549 14.7678C10.8454 14.5724 10.9416 14.3249 10.9416 14.0257C10.9416 13.7216 10.8441 13.4707 10.6487 13.2737C10.4545 13.0782 10.1987 12.9774 9.89786 12.9774ZM12.1587 6.07783C11.6524 5.63658 10.9429 5.41699 10.0279 5.41699C9.1212 5.41699 8.40495 5.64991 7.8812 6.11366C7.38495 6.55324 7.1212 7.15699 7.0887 7.91699H7.08203V8.33366H8.95703L8.96036 8.04074C8.9687 7.69741 9.06953 7.42699 9.26161 7.23199C9.45203 7.03491 9.70911 6.93741 10.0283 6.93741C10.702 6.93741 11.0374 7.30033 11.0374 8.02783C11.0374 8.26866 10.9741 8.49824 10.8437 8.71449C10.7149 8.93116 10.4545 9.21241 10.0641 9.55908C9.67328 9.90408 9.40495 10.2557 9.25828 10.612C9.11036 10.9682 9.03703 11.4812 9.03703 12.0832H10.6954L10.7216 11.657C10.7687 11.2353 10.9562 10.8691 11.2849 10.5549L11.8108 10.0587C12.2191 9.66324 12.5074 9.30324 12.6704 8.97949C12.8349 8.65408 12.9179 8.30908 12.9179 7.94449C12.9154 7.14074 12.6633 6.51908 12.1587 6.07783Z" fill="#FFEEDE"/>
</svg>
