<svg width="14" height="14" viewBox="0 0 14 14" fill="none" xmlns="http://www.w3.org/2000/svg">
<path d="M7.00322 0.333008C6.47759 0.333008 5.97078 0.399484 5.48695 0.512044C5.38605 0.535593 5.29497 0.589898 5.22628 0.667455C5.15758 0.745011 5.11468 0.84199 5.10348 0.944987L4.99736 1.91243C4.96266 2.22946 4.77953 2.50996 4.50322 2.6696C4.22747 2.82892 3.89276 2.84656 3.60088 2.71842H3.60023L2.71156 2.32715C2.61677 2.28544 2.51137 2.27418 2.40991 2.29494C2.30845 2.3157 2.21594 2.36744 2.14515 2.44303C1.45432 3.17954 0.924116 4.07136 0.623015 5.06673C0.593022 5.1658 0.594512 5.27174 0.62728 5.36992C0.660048 5.46811 0.722478 5.55371 0.805957 5.61491L1.59437 6.19303C1.85182 6.38231 2.00322 6.68061 2.00322 6.99967C2.00322 7.31891 1.85182 7.61746 1.59437 7.80632L0.805957 8.38379C0.722478 8.44499 0.660048 8.53059 0.62728 8.62877C0.594512 8.72696 0.593022 8.8329 0.623015 8.93197C0.924084 9.92723 1.45386 10.8197 2.14515 11.5563C2.21601 11.6318 2.30856 11.6834 2.41002 11.7041C2.51147 11.7247 2.61683 11.7133 2.71156 11.6715L3.60023 11.2803C3.89225 11.1518 4.22728 11.1703 4.50322 11.3298C4.77953 11.4894 4.96266 11.7699 4.99736 12.0869L5.10348 13.0544C5.11476 13.1572 5.15763 13.2539 5.22619 13.3313C5.29475 13.4088 5.38562 13.463 5.4863 13.4867C5.97035 13.5996 6.47759 13.6663 7.00322 13.6663C7.52886 13.6663 8.03567 13.5999 8.5195 13.4873C8.62039 13.4638 8.71148 13.4095 8.78017 13.3319C8.84886 13.2543 8.89177 13.1574 8.90296 13.0544L9.00908 12.0869C9.04379 11.7699 9.22692 11.4894 9.50322 11.3298C9.77898 11.1704 10.1137 11.1521 10.4056 11.2803L11.2949 11.6715C11.3896 11.7133 11.495 11.7247 11.5964 11.7041C11.6979 11.6834 11.7904 11.6318 11.8613 11.5563C12.5521 10.8198 13.0823 9.92734 13.3834 8.93197C13.4134 8.8329 13.4119 8.72696 13.3792 8.62877C13.3464 8.53059 13.284 8.44499 13.2005 8.38379L12.4121 7.80632C12.1546 7.61746 12.0032 7.31891 12.0032 6.99967C12.0032 6.68044 12.1546 6.38189 12.4121 6.19303L13.2005 5.61556C13.284 5.55436 13.3464 5.46876 13.3792 5.37057C13.4119 5.27239 13.4134 5.16645 13.3834 5.06738C13.0823 4.07201 12.5521 3.17954 11.8613 2.44303C11.7904 2.36755 11.6979 2.31593 11.5964 2.29529C11.495 2.27465 11.3896 2.28601 11.2949 2.3278L10.4056 2.71908C10.1137 2.84721 9.77898 2.82892 9.50322 2.6696C9.22692 2.50996 9.04379 2.22946 9.00908 1.91243L8.90296 0.944987C8.89169 0.842192 8.84882 0.745422 8.78026 0.668003C8.7117 0.590583 8.62083 0.536324 8.52015 0.512695C8.0361 0.399726 7.52886 0.333008 7.00322 0.333008ZM7.00322 1.33301C7.32799 1.33301 7.63986 1.3913 7.95244 1.44629L8.01494 2.02116C8.08424 2.65413 8.45219 3.21712 9.00322 3.53548C9.55461 3.85405 10.2259 3.89068 10.8086 3.63444L11.3372 3.40202C11.7432 3.88948 12.0646 4.44007 12.289 5.04329L11.8203 5.38704C11.3071 5.76352 11.0032 6.36291 11.0032 6.99967C11.0032 7.63644 11.3071 8.23583 11.8203 8.6123L12.289 8.95605C12.0646 9.55928 11.7432 10.1099 11.3372 10.5973L10.8086 10.3649C10.2259 10.1087 9.55461 10.1453 9.00322 10.4639C8.45219 10.7822 8.08424 11.3452 8.01494 11.9782L7.95244 12.5531C7.63989 12.6079 7.32783 12.6663 7.00322 12.6663C6.67846 12.6663 6.36658 12.608 6.054 12.5531L5.9915 11.9782C5.92221 11.3452 5.55425 10.7822 5.00322 10.4639C4.45183 10.1453 3.78052 10.1087 3.19788 10.3649L2.66924 10.5973C2.26322 10.1099 1.94187 9.55933 1.71742 8.95605L2.18617 8.6123C2.69938 8.23583 3.00322 7.63644 3.00322 6.99967C3.00322 6.36291 2.69913 5.76313 2.18617 5.38639L1.71742 5.04264C1.942 4.43919 2.26371 3.88895 2.66989 3.40137L3.19788 3.63379C3.78052 3.89003 4.45183 3.85405 5.00322 3.53548C5.55425 3.21712 5.92221 2.65413 5.9915 2.02116L6.054 1.44629C6.36656 1.39145 6.67862 1.33301 7.00322 1.33301ZM7.00322 4.33301C5.53639 4.33301 4.33656 5.53284 4.33656 6.99967C4.33656 8.46651 5.53639 9.66634 7.00322 9.66634C8.47006 9.66634 9.66989 8.46651 9.66989 6.99967C9.66989 5.53284 8.47006 4.33301 7.00322 4.33301ZM7.00322 5.33301C7.92962 5.33301 8.66989 6.07328 8.66989 6.99967C8.66989 7.92607 7.92962 8.66634 7.00322 8.66634C6.07683 8.66634 5.33656 7.92607 5.33656 6.99967C5.33656 6.07328 6.07683 5.33301 7.00322 5.33301Z" fill="#100A31" fill-opacity="1"/>
</svg>
