<svg width="18" height="18" viewBox="0 0 18 18" fill="none" xmlns="http://www.w3.org/2000/svg">
<path d="M9.0013 0.666992C4.4088 0.666992 0.667969 4.40782 0.667969 9.00033C0.667969 13.5928 4.4088 17.3337 9.0013 17.3337C13.5938 17.3337 17.3346 13.5928 17.3346 9.00033C17.3346 4.40782 13.5938 0.666992 9.0013 0.666992ZM9.0013 2.33366C9.20821 2.33366 9.43499 2.41836 9.72396 2.69336C10.0129 2.96836 10.3267 3.42939 10.5964 4.03613C10.8016 4.49801 10.9696 5.06172 11.1139 5.66699H6.88867C7.03304 5.06172 7.20097 4.49801 7.40625 4.03613C7.67591 3.42939 7.98968 2.96836 8.27865 2.69336C8.56762 2.41836 8.7944 2.33366 9.0013 2.33366ZM6.04395 3.02865C5.98967 3.13773 5.93367 3.24462 5.88281 3.35905C5.58138 4.03727 5.34741 4.82217 5.17155 5.66699H3.22819C3.88356 4.53131 4.8637 3.61229 6.04395 3.02865ZM11.9587 3.02865C13.1389 3.61229 14.119 4.53131 14.7744 5.66699H12.8311C12.6552 4.82217 12.4212 4.03727 12.1198 3.35905C12.0689 3.24462 12.0129 3.13773 11.9587 3.02865ZM2.55273 7.33366H4.91602C4.86486 7.87273 4.83464 8.42835 4.83464 9.00033C4.83464 9.5723 4.86486 10.1279 4.91602 10.667H2.55273C2.41593 10.1335 2.33464 9.57751 2.33464 9.00033C2.33464 8.42314 2.41593 7.86717 2.55273 7.33366ZM6.59896 7.33366H11.4036C11.4617 7.86915 11.5013 8.42251 11.5013 9.00033C11.5013 9.57814 11.4617 10.1315 11.4036 10.667H6.59896C6.54095 10.1315 6.5013 9.57814 6.5013 9.00033C6.5013 8.42251 6.54095 7.86915 6.59896 7.33366ZM13.0866 7.33366H15.4499C15.5867 7.86717 15.668 8.42314 15.668 9.00033C15.668 9.57751 15.5867 10.1335 15.4499 10.667H13.0866C13.1377 10.1279 13.168 9.5723 13.168 9.00033C13.168 8.42835 13.1377 7.87273 13.0866 7.33366ZM3.22819 12.3337H5.17155C5.34741 13.1785 5.58138 13.9634 5.88281 14.6416C5.93367 14.756 5.98967 14.8629 6.04395 14.972C4.8637 14.3884 3.88356 13.4693 3.22819 12.3337ZM6.88867 12.3337H11.1139C10.9696 12.9389 10.8016 13.5026 10.5964 13.9645C10.3267 14.5713 10.0129 15.0323 9.72396 15.3073C9.43499 15.5823 9.20821 15.667 9.0013 15.667C8.7944 15.667 8.56762 15.5823 8.27865 15.3073C7.98968 15.0323 7.67591 14.5713 7.40625 13.9645C7.20097 13.5026 7.03304 12.9389 6.88867 12.3337ZM12.8311 12.3337H14.7744C14.119 13.4693 13.1389 14.3884 11.9587 14.972C12.0129 14.8629 12.0689 14.756 12.1198 14.6416C12.4212 13.9634 12.6552 13.1785 12.8311 12.3337Z" fill="#100A31" fill-opacity="0.24"/>
</svg>
